G04*
G04 #@! TF.GenerationSoftware,Altium Limited,Altium Designer,19.0.15 (446)*
G04*
G04 Layer_Color=16711935*
%FSAX25Y25*%
%MOIN*%
G70*
G01*
G75*
%ADD54C,0.09068*%
%ADD55R,0.09068X0.09068*%
%ADD56C,0.07296*%
%ADD57R,0.07296X0.07296*%
%ADD58R,0.06706X0.06706*%
%ADD59C,0.06706*%
%ADD60C,0.24422*%
D54*
X0280235Y0139302D02*
D03*
X0266456D02*
D03*
X0252676D02*
D03*
X0209566D02*
D03*
X0195786D02*
D03*
X0182007D02*
D03*
D55*
X0238897D02*
D03*
X0168228D02*
D03*
D56*
X0352195Y0153020D02*
D03*
Y0162862D02*
D03*
Y0172705D02*
D03*
D57*
Y0182547D02*
D03*
D58*
X0140558Y0207975D02*
D03*
D59*
Y0217975D02*
D03*
X0150558Y0207975D02*
D03*
Y0217975D02*
D03*
X0160558Y0207975D02*
D03*
Y0217975D02*
D03*
X0170558Y0207975D02*
D03*
Y0217975D02*
D03*
X0180558Y0207975D02*
D03*
Y0217975D02*
D03*
X0190558Y0207975D02*
D03*
Y0217975D02*
D03*
X0200558Y0207975D02*
D03*
Y0217975D02*
D03*
X0210558Y0207975D02*
D03*
Y0217975D02*
D03*
X0220558Y0207975D02*
D03*
Y0217975D02*
D03*
X0230558Y0207975D02*
D03*
Y0217975D02*
D03*
X0240558Y0207975D02*
D03*
Y0217975D02*
D03*
X0250558Y0207975D02*
D03*
Y0217975D02*
D03*
X0260558Y0207975D02*
D03*
Y0217975D02*
D03*
X0270558Y0207975D02*
D03*
Y0217975D02*
D03*
X0280558Y0207975D02*
D03*
Y0217975D02*
D03*
X0290558Y0207975D02*
D03*
Y0217975D02*
D03*
X0300558Y0207975D02*
D03*
Y0217975D02*
D03*
X0310558Y0207975D02*
D03*
Y0217975D02*
D03*
X0320558Y0207975D02*
D03*
Y0217975D02*
D03*
X0330558Y0207975D02*
D03*
Y0217975D02*
D03*
D60*
X0349724Y0122374D02*
D03*
Y0212925D02*
D03*
X0121378D02*
D03*
Y0122374D02*
D03*
M02*
