G04*
G04 #@! TF.GenerationSoftware,Altium Limited,Altium Designer,19.0.15 (446)*
G04*
G04 Layer_Color=16711935*
%FSAX25Y25*%
%MOIN*%
G70*
G01*
G75*
%ADD12C,0.01000*%
%ADD80C,0.00600*%
D12*
X0107598Y0243240D02*
X0113598Y0245240D01*
X0107598Y0243240D02*
X0113598Y0241240D01*
X0357504D02*
X0363504Y0243240D01*
X0357504Y0245240D02*
X0363504Y0243240D01*
X0107598D02*
X0218356D01*
X0249547D02*
X0363504D01*
X0107598Y0216091D02*
Y0244240D01*
X0363504Y0216091D02*
Y0244240D01*
X0384370Y0226705D02*
X0386370Y0220705D01*
X0382370D02*
X0384370Y0226705D01*
X0382370Y0114594D02*
X0384370Y0108595D01*
X0386370Y0114594D01*
X0384370Y0181645D02*
Y0226705D01*
Y0108595D02*
Y0150454D01*
X0352890Y0226705D02*
X0385370D01*
X0352284Y0108595D02*
X0385370D01*
D80*
X0223954Y0244639D02*
X0221955Y0243640D01*
X0219956Y0241640D01*
Y0239641D01*
X0220955Y0238642D01*
X0222955D01*
X0223954Y0239641D01*
Y0240641D01*
X0222955Y0241640D01*
X0219956D01*
X0229953Y0244639D02*
X0225954D01*
Y0241640D01*
X0227953Y0242640D01*
X0228953D01*
X0229953Y0241640D01*
Y0239641D01*
X0228953Y0238642D01*
X0226954D01*
X0225954Y0239641D01*
X0232951Y0237642D02*
X0233951Y0238642D01*
Y0239641D01*
X0232951D01*
Y0238642D01*
X0233951D01*
X0232951Y0237642D01*
X0231952Y0236642D01*
X0237950Y0243640D02*
X0238950Y0244639D01*
X0240949D01*
X0241949Y0243640D01*
Y0239641D01*
X0240949Y0238642D01*
X0238950D01*
X0237950Y0239641D01*
Y0243640D01*
X0243948D02*
X0244948Y0244639D01*
X0246947D01*
X0247947Y0243640D01*
Y0239641D01*
X0246947Y0238642D01*
X0244948D01*
X0243948Y0239641D01*
Y0243640D01*
X0383970Y0152054D02*
X0382971Y0153054D01*
Y0155053D01*
X0383970Y0156053D01*
X0384970D01*
X0385970Y0155053D01*
Y0154053D01*
Y0155053D01*
X0386969Y0156053D01*
X0387969D01*
X0388969Y0155053D01*
Y0153054D01*
X0387969Y0152054D01*
X0383970Y0158052D02*
X0382971Y0159052D01*
Y0161051D01*
X0383970Y0162051D01*
X0387969D01*
X0388969Y0161051D01*
Y0159052D01*
X0387969Y0158052D01*
X0383970D01*
X0389968Y0165050D02*
X0388969Y0166050D01*
X0387969D01*
Y0165050D01*
X0388969D01*
Y0166050D01*
X0389968Y0165050D01*
X0390968Y0164050D01*
X0383970Y0170048D02*
X0382971Y0171048D01*
Y0173047D01*
X0383970Y0174047D01*
X0387969D01*
X0388969Y0173047D01*
Y0171048D01*
X0387969Y0170048D01*
X0383970D01*
Y0176046D02*
X0382971Y0177046D01*
Y0179045D01*
X0383970Y0180045D01*
X0387969D01*
X0388969Y0179045D01*
Y0177046D01*
X0387969Y0176046D01*
X0383970D01*
M02*
