G04*
G04 #@! TF.GenerationSoftware,Altium Limited,Altium Designer,19.0.15 (446)*
G04*
G04 Layer_Color=8388736*
%FSAX25Y25*%
%MOIN*%
G70*
G01*
G75*
%ADD35R,0.03162X0.09461*%
%ADD36R,0.03162X0.09461*%
%ADD37R,0.02769X0.01587*%
%ADD38R,0.01587X0.02769*%
%ADD39R,0.07493X0.06863*%
G04:AMPARAMS|DCode=40|XSize=17.84mil|YSize=35.56mil|CornerRadius=6.46mil|HoleSize=0mil|Usage=FLASHONLY|Rotation=90.000|XOffset=0mil|YOffset=0mil|HoleType=Round|Shape=RoundedRectangle|*
%AMROUNDEDRECTD40*
21,1,0.01784,0.02264,0,0,90.0*
21,1,0.00492,0.03556,0,0,90.0*
1,1,0.01292,0.01132,0.00246*
1,1,0.01292,0.01132,-0.00246*
1,1,0.01292,-0.01132,-0.00246*
1,1,0.01292,-0.01132,0.00246*
%
%ADD40ROUNDEDRECTD40*%
G04:AMPARAMS|DCode=41|XSize=17.84mil|YSize=31.62mil|CornerRadius=6.46mil|HoleSize=0mil|Usage=FLASHONLY|Rotation=0.000|XOffset=0mil|YOffset=0mil|HoleType=Round|Shape=RoundedRectangle|*
%AMROUNDEDRECTD41*
21,1,0.01784,0.01870,0,0,0.0*
21,1,0.00492,0.03162,0,0,0.0*
1,1,0.01292,0.00246,-0.00935*
1,1,0.01292,-0.00246,-0.00935*
1,1,0.01292,-0.00246,0.00935*
1,1,0.01292,0.00246,0.00935*
%
%ADD41ROUNDEDRECTD41*%
G04:AMPARAMS|DCode=42|XSize=17.84mil|YSize=61.15mil|CornerRadius=6.46mil|HoleSize=0mil|Usage=FLASHONLY|Rotation=90.000|XOffset=0mil|YOffset=0mil|HoleType=Round|Shape=RoundedRectangle|*
%AMROUNDEDRECTD42*
21,1,0.01784,0.04823,0,0,90.0*
21,1,0.00492,0.06115,0,0,90.0*
1,1,0.01292,0.02411,0.00246*
1,1,0.01292,0.02411,-0.00246*
1,1,0.01292,-0.02411,-0.00246*
1,1,0.01292,-0.02411,0.00246*
%
%ADD42ROUNDEDRECTD42*%
G04:AMPARAMS|DCode=43|XSize=17.84mil|YSize=74.93mil|CornerRadius=6.46mil|HoleSize=0mil|Usage=FLASHONLY|Rotation=90.000|XOffset=0mil|YOffset=0mil|HoleType=Round|Shape=RoundedRectangle|*
%AMROUNDEDRECTD43*
21,1,0.01784,0.06201,0,0,90.0*
21,1,0.00492,0.07493,0,0,90.0*
1,1,0.01292,0.03100,0.00246*
1,1,0.01292,0.03100,-0.00246*
1,1,0.01292,-0.03100,-0.00246*
1,1,0.01292,-0.03100,0.00246*
%
%ADD43ROUNDEDRECTD43*%
G04:AMPARAMS|DCode=44|XSize=17.84mil|YSize=31.62mil|CornerRadius=6.46mil|HoleSize=0mil|Usage=FLASHONLY|Rotation=90.000|XOffset=0mil|YOffset=0mil|HoleType=Round|Shape=RoundedRectangle|*
%AMROUNDEDRECTD44*
21,1,0.01784,0.01870,0,0,90.0*
21,1,0.00492,0.03162,0,0,90.0*
1,1,0.01292,0.00935,0.00246*
1,1,0.01292,0.00935,-0.00246*
1,1,0.01292,-0.00935,-0.00246*
1,1,0.01292,-0.00935,0.00246*
%
%ADD44ROUNDEDRECTD44*%
%ADD45R,0.02690X0.04540*%
%ADD46R,0.04540X0.02690*%
%ADD47R,0.03162X0.04343*%
%ADD48R,0.04343X0.03162*%
%ADD49R,0.10249X0.07099*%
%ADD50C,0.11811*%
%ADD51R,0.03950X0.03950*%
%ADD52R,0.03950X0.03950*%
%ADD53R,0.04343X0.05918*%
%ADD54C,0.09068*%
%ADD55R,0.09068X0.09068*%
%ADD56C,0.07296*%
%ADD57R,0.07296X0.07296*%
%ADD58R,0.06706X0.06706*%
%ADD59C,0.06706*%
%ADD60C,0.24422*%
%ADD61C,0.02769*%
D35*
X0313778Y0173357D02*
D03*
X0293778D02*
D03*
Y0152884D02*
D03*
X0189959Y0186743D02*
D03*
D36*
X0298778Y0152884D02*
D03*
X0303778D02*
D03*
X0308778D02*
D03*
X0313778D02*
D03*
X0298778Y0173357D02*
D03*
X0303778D02*
D03*
X0308778D02*
D03*
X0288778D02*
D03*
X0283778D02*
D03*
X0288778Y0152884D02*
D03*
X0283778D02*
D03*
X0278778D02*
D03*
Y0173357D02*
D03*
X0174959Y0166270D02*
D03*
X0179959D02*
D03*
X0184959D02*
D03*
X0189959D02*
D03*
X0174959Y0186743D02*
D03*
X0179959D02*
D03*
X0184959D02*
D03*
D37*
X0229447Y0171388D02*
D03*
Y0169814D02*
D03*
Y0168239D02*
D03*
Y0166664D02*
D03*
Y0165089D02*
D03*
Y0163514D02*
D03*
X0241258D02*
D03*
Y0165089D02*
D03*
Y0166664D02*
D03*
Y0168239D02*
D03*
Y0169814D02*
D03*
Y0171388D02*
D03*
D38*
X0231416Y0161546D02*
D03*
X0232991D02*
D03*
X0234565D02*
D03*
X0236140D02*
D03*
X0237715D02*
D03*
X0239290D02*
D03*
Y0173357D02*
D03*
X0237715D02*
D03*
X0236140D02*
D03*
X0234565D02*
D03*
X0232991D02*
D03*
X0231416D02*
D03*
D39*
X0235353Y0167451D02*
D03*
D40*
X0140709Y0164690D02*
D03*
Y0175910D02*
D03*
D41*
X0135788Y0176599D02*
D03*
X0137756D02*
D03*
X0139725D02*
D03*
X0141693D02*
D03*
Y0164001D02*
D03*
X0139725D02*
D03*
X0137756D02*
D03*
X0135788D02*
D03*
D42*
X0141792Y0172269D02*
D03*
Y0168332D02*
D03*
D43*
X0141103Y0170300D02*
D03*
D44*
X0134213Y0167347D02*
D03*
Y0169316D02*
D03*
Y0171284D02*
D03*
Y0173253D02*
D03*
D45*
X0325904Y0149237D02*
D03*
X0333542D02*
D03*
X0329723Y0156875D02*
D03*
X0333660Y0187215D02*
D03*
X0326022D02*
D03*
X0329841Y0179577D02*
D03*
X0210825Y0181009D02*
D03*
X0203187D02*
D03*
X0207006Y0173371D02*
D03*
X0194920Y0151625D02*
D03*
X0202558D02*
D03*
X0198739Y0159262D02*
D03*
D46*
X0263581Y0177806D02*
D03*
Y0185443D02*
D03*
X0255943Y0181624D02*
D03*
X0263502Y0191320D02*
D03*
Y0198958D02*
D03*
X0255864Y0195139D02*
D03*
D47*
X0344605Y0139105D02*
D03*
X0338699D02*
D03*
X0235747Y0189498D02*
D03*
X0241652D02*
D03*
X0217792Y0199341D02*
D03*
X0223697D02*
D03*
X0326888Y0162820D02*
D03*
X0332794D02*
D03*
X0326691Y0143332D02*
D03*
X0332597D02*
D03*
X0332794Y0172766D02*
D03*
X0326888D02*
D03*
X0332991Y0194223D02*
D03*
X0327085D02*
D03*
X0210156Y0187924D02*
D03*
X0204251D02*
D03*
X0222361Y0176113D02*
D03*
X0216455D02*
D03*
X0214684Y0151703D02*
D03*
X0208778D02*
D03*
X0134172Y0144223D02*
D03*
X0128266D02*
D03*
D48*
X0320558Y0188368D02*
D03*
Y0194273D02*
D03*
X0248345Y0178869D02*
D03*
Y0184774D02*
D03*
X0270786Y0178672D02*
D03*
Y0184577D02*
D03*
X0248345Y0192186D02*
D03*
Y0198092D02*
D03*
X0270786Y0192058D02*
D03*
Y0197963D02*
D03*
X0216455Y0182412D02*
D03*
Y0188317D02*
D03*
X0179054Y0151703D02*
D03*
Y0157609D02*
D03*
X0223231Y0188317D02*
D03*
Y0182412D02*
D03*
X0185943Y0151703D02*
D03*
Y0157609D02*
D03*
X0196770Y0173357D02*
D03*
Y0179262D02*
D03*
X0128266Y0150522D02*
D03*
Y0156428D02*
D03*
X0133975Y0189695D02*
D03*
Y0183790D02*
D03*
X0127282Y0189695D02*
D03*
Y0183790D02*
D03*
D49*
X0155502Y0177077D02*
D03*
Y0163691D02*
D03*
D50*
X0329960Y0119420D02*
D03*
X0117243Y0193436D02*
D03*
D51*
X0313896Y0137333D02*
D03*
Y0143239D02*
D03*
X0320164Y0137333D02*
D03*
Y0143239D02*
D03*
X0127282Y0163317D02*
D03*
Y0169223D02*
D03*
D52*
X0237715Y0153869D02*
D03*
X0243621D02*
D03*
X0248542Y0163514D02*
D03*
X0254447D02*
D03*
X0231416Y0153869D02*
D03*
X0225510D02*
D03*
X0202479Y0166270D02*
D03*
X0196573D02*
D03*
D53*
X0148148Y0135562D02*
D03*
X0140668D02*
D03*
X0148187Y0144223D02*
D03*
X0140707D02*
D03*
X0148187Y0152963D02*
D03*
X0140707D02*
D03*
X0148148Y0194026D02*
D03*
X0140668D02*
D03*
X0148148Y0185365D02*
D03*
X0140668D02*
D03*
D54*
X0280235Y0139302D02*
D03*
X0266456D02*
D03*
X0252676D02*
D03*
X0209566D02*
D03*
X0195786D02*
D03*
X0182007D02*
D03*
D55*
X0238897D02*
D03*
X0168228D02*
D03*
D56*
X0352195Y0153020D02*
D03*
Y0162862D02*
D03*
Y0172705D02*
D03*
D57*
Y0182547D02*
D03*
D58*
X0140558Y0207975D02*
D03*
D59*
Y0217975D02*
D03*
X0150558Y0207975D02*
D03*
Y0217975D02*
D03*
X0160558Y0207975D02*
D03*
Y0217975D02*
D03*
X0170558Y0207975D02*
D03*
Y0217975D02*
D03*
X0180558Y0207975D02*
D03*
Y0217975D02*
D03*
X0190558Y0207975D02*
D03*
Y0217975D02*
D03*
X0200558Y0207975D02*
D03*
Y0217975D02*
D03*
X0210558Y0207975D02*
D03*
Y0217975D02*
D03*
X0220558Y0207975D02*
D03*
Y0217975D02*
D03*
X0230558Y0207975D02*
D03*
Y0217975D02*
D03*
X0240558Y0207975D02*
D03*
Y0217975D02*
D03*
X0250558Y0207975D02*
D03*
Y0217975D02*
D03*
X0260558Y0207975D02*
D03*
Y0217975D02*
D03*
X0270558Y0207975D02*
D03*
Y0217975D02*
D03*
X0280558Y0207975D02*
D03*
Y0217975D02*
D03*
X0290558Y0207975D02*
D03*
Y0217975D02*
D03*
X0300558Y0207975D02*
D03*
Y0217975D02*
D03*
X0310558Y0207975D02*
D03*
Y0217975D02*
D03*
X0320558Y0207975D02*
D03*
Y0217975D02*
D03*
X0330558Y0207975D02*
D03*
Y0217975D02*
D03*
D60*
X0349724Y0122374D02*
D03*
Y0212925D02*
D03*
X0121378D02*
D03*
Y0122374D02*
D03*
D61*
X0233353Y0168951D02*
D03*
X0237353D02*
D03*
X0233353Y0165951D02*
D03*
X0237353D02*
D03*
M02*
