M48
;Layer_Color=9474304
;FILE_FORMAT=2:5
INCH
;TYPE=PLATED
T1F00S00C0.01181
T2F00S00C0.03543
T3F00S00C0.04331
T4F00S00C0.05512
T5F00S00C0.12008
%
T01
X0109959Y0132475
X0112205Y0135827
X0109959Y0138381
Y0144286
X0112205Y0147638
X0109959Y0150192
Y0156097
X0115157Y0153543
X0121063
X0118110Y0147638
X0124016
X0121063Y0141732
X0115157
X0118110Y0135827
X0124016
X0129921
X0135827
X0132874Y0129921
X0135827Y0124016
X0141732
X0144685Y0118110
X0150591
X0147638Y0112205
X0153543
X0141732
X0135827
X0138779Y0118110
X0135827Y0147638
X0153543
Y0135827
X0156496Y0141732
X0162401
X0165354Y0147638
X0171260
X0177165
X0174213Y0153543
X0168307
X0162401
X0156496
X0174213Y0141732
X0177165Y0135827
X0188976
Y0147638
X0197235Y0155246
X0205462Y0148947
X0208766Y0147766
X0215551Y0141732
X0221457
X0227362
X0224409Y0135827
X0230315
Y0124016
X0236220
X0242126
X0248031
X0253937
X0259842
X0265748
X0271654
X0277559
X0283465
X0289370
X0295275
X0301181
X0307086
X0310039Y0118110
X0304134
X0298228
X0292323
X0286417
X0280512
X0274606
X0268701
X0262795
X0256890
X0250984
X0245079
X0239173
X0233268
X0227362
X0221457
X0215551
X0209646
X0203740
X0197835
X0191929
X0186024
X0180118
X0174213
X0168307
X0162401
X0156496
X0159449Y0124016
X0165354
X0171260
X0177165
X0183071
X0188976
X0194882
X0200787
X0206693
X0212598
X0218504
X0224409
Y0112205
X0230315
X0236220
X0242126
X0248031
X0253937
X0259842
X0265748
X0271654
X0277559
X0283465
X0289370
X0295275
X0301181
X0307086
X0304134Y0129921
X0298228
X0295275Y0135827
X0301181
X0298936Y0140876
X0292323Y0141732
X0286417
X0289370Y0135827
X0286417Y0129921
X0280512
X0274606
X0268701
X0262795
X0256890
X0250984
X0245079
X0239173
X0248031Y0135827
X0245079Y0141732
X0251414Y0155443
X0259762Y0155640
X0273148Y0152097
X0274526Y0148947
X0271654Y0135827
X0259842
X0218504
X0221457Y0153543
X0216668Y0155837
X0218504Y0112205
X0212598
X0206693
X0200787
X0194882
X0188976
X0183071
X0177165
X0171260
X0165354
X0159449
X0311337Y0133199
X0308188Y0136940
X0307991Y0142254
X0320392Y0147129
X0320558Y0150916
X0317439Y0152688
X0325236Y0154656
X0330709Y0147638
X0336614
X0342520
X0348425
X0354331
X0361140Y0149341
Y0143436
X0357283Y0141732
X0351378
X0348542Y0139105
X0348425Y0135827
X0354331
X0361140Y0137530
Y0131624
Y0155246
X0339567Y0153543
X0327282Y0138121
X0324526Y0133396
X0318424Y0132806
X0318898Y0124016
X0312992
X0315945Y0118110
X0321850
X0318898Y0112205
X0324803
X0330709
X0336614
X0333661Y0129921
X0312992Y0112205
X0313896Y0167025
X0317243Y0163896
X0321850Y0165354
X0320392Y0160666
X0323739Y0158987
X0333778Y0157490
X0339567Y0165354
X0345472
X0346376Y0160459
X0347361Y0169814
X0342636Y0172766
X0337518
X0333661Y0177165
X0330709Y0183071
X0329841Y0189685
X0339567Y0188976
X0345472
X0351378
X0357283
X0361140Y0190680
Y0184774
Y0178869
Y0172963
Y0167058
Y0161152
X0355235Y0167845
X0354331Y0194882
X0348425
X0342520
X0336614
X0339567Y0200787
X0333661
X0327756
X0321850
X0315945
X0312992Y0194882
X0315945Y0188976
X0322951Y0180246
X0325904Y0179205
X0318898Y0171260
X0342520Y0183071
X0336614Y0206693
X0333661Y0212598
X0327756
X0321850
X0315945
X0316468Y0223786
X0322373
X0328279
X0334184
X0340090
X0336614Y0218504
X0357283Y0200787
X0361140Y0202491
Y0196585
X0310039Y0200787
X0304134
X0298228
X0292439Y0201466
X0288766
X0288699Y0194882
X0292359
X0298542Y0193735
X0298228Y0188976
X0304206Y0187924
X0307086Y0183071
X0301181
X0295275
X0290377Y0180837
X0288109Y0184221
X0282006Y0184577
X0281219Y0179774
X0274606Y0177165
X0271654Y0171260
X0269039Y0173357
X0264487Y0173750
X0263502Y0165286
X0268701Y0165354
X0266652Y0161858
X0265748Y0159449
X0266455Y0157018
X0259842Y0159449
X0259762Y0163420
X0253937Y0159449
X0248542Y0157806
X0244014Y0160955
X0239880Y0158396
X0234565Y0157806
X0230235Y0158790
X0228463Y0160838
X0225313Y0159971
X0226008Y0163066
X0223936Y0165286
Y0169026
X0233353Y0168951
Y0165951
X0237353
Y0168951
X0245692Y0168342
X0248031Y0171260
X0245786Y0174538
X0251495
X0255432Y0168951
X0243424Y0177884
Y0181428
X0243621Y0194854
X0235550Y0195207
X0227362Y0188976
X0231416Y0177688
X0213341Y0175522
X0212518Y0166664
X0214684Y0163711
X0212598Y0159449
X0209646Y0162045
X0206168Y0165089
X0203718Y0170334
X0196377Y0176163
X0190865Y0176653
X0184959Y0176613
X0180118Y0177165
X0176956Y0180247
X0168391Y0178175
X0162401Y0177165
X0165354Y0171260
X0168307Y0165354
X0162401
X0165354Y0159449
X0171260
X0172361Y0174144
X0166258Y0184971
X0166061Y0190029
X0166455Y0193042
X0162912
X0158975
X0169605Y0189892
X0177165Y0194882
X0183071
X0196591Y0194617
X0200510Y0190973
X0205432Y0195207
X0210550Y0195139
X0210558Y0200325
X0202282Y0199609
X0207203Y0183593
X0194882Y0183071
X0195392Y0162831
Y0159380
X0189959Y0159931
X0191929Y0212598
X0192452Y0223786
X0198358
X0204263
X0210169
X0216074
X0221980
X0257413
X0263318
X0269224
X0275129
X0281035
X0286940
X0292846
X0298751
X0304657
X0310562
X0310039Y0212598
X0304134
X0298228
X0295275Y0218504
X0265748
Y0206693
X0268701Y0200787
X0274606
X0275510Y0188840
X0282991Y0192058
X0282597Y0195601
X0288670Y0190680
X0307086Y0194882
X0310943Y0189302
X0310550Y0180246
X0308778Y0167117
X0303069Y0165354
X0302085Y0163095
X0299630Y0165089
X0301148Y0167451
X0297361Y0167347
X0296376Y0159962
X0294014Y0162155
X0291455Y0164534
X0289290Y0166743
X0285550
X0286534Y0162136
X0278463Y0166743
X0274606Y0165354
X0268621Y0181710
X0260943Y0188121
X0259842Y0194882
X0265748
X0253266Y0188317
X0245589Y0204514
X0250984Y0212598
X0186547Y0223786
X0180641
X0174735
X0168830
X0162925
X0157019
X0156496Y0212598
X0162401
X0306022Y0159971
X0145392Y0160078
X0129921Y0159449
X0132794Y0156522
X0132282Y0163317
X0124016Y0159449
X0118110
X0112205
X0109959Y0162003
Y0167909
X0112205Y0171260
X0109959Y0173814
Y0179719
X0112205Y0183071
X0109959Y0185625
Y0191531
Y0197436
Y0203342
X0115157Y0200787
X0124016Y0194882
X0129921
X0131706Y0179853
X0132991Y0176613
X0129644Y0176518
X0121063Y0177165
X0115157
X0118110Y0183071
Y0171260
X0124016
X0121063Y0165354
X0115157
X0145786Y0178081
X0153543Y0183071
X0155628Y0188908
X0153543Y0194882
X0150591Y0212598
X0151113Y0223786
X0145208
X0139302
X0133397
X0135827Y0218504
T02
X0320558Y0207975
Y0217975
X0330558
Y0207975
X0310558
X0300558
X0290558
X0280558
X0270558
X0260558
X0250558
X0240558
X0230558
X0220558
X0210558
X0200558
X0190558
X0180558
X0170558
X0160558
Y0217975
X0170558
X0180558
X0190558
X0200558
X0210558
X0220558
X0230558
X0240558
X0250558
X0260558
X0270558
X0280558
X0290558
X0300558
X0310558
X0150558
X0140558
Y0207975
X0150558
T03
X0352195Y0153020
Y0162862
Y0172705
Y0182547
T04
X0168228Y0139302
X0182007
X0195786
X0209566
X0238897
X0252676
X0266456
X0280235
T05
X0121378Y0122374
X0349724
Y0212925
X0121378
M30
